<?xml version="1.0" encoding="utf-8"?><svg version="1.1" id="Layer_1" xmlns="http://www.w3.org/2000/svg" xmlns:xlink="http://www.w3.org/1999/xlink" x="0px" y="0px" viewBox="0 0 112.08 122.88" style="enable-background:new 0 0 112.08 122.88" xml:space="preserve"><style type="text/css">.st0{fill-rule:evenodd;clip-rule:evenodd;}</style><g><path class="st0" d="M12.44,57.58c-3.84,1.3-5.96,0.44-6.62-1.96c-1.44-5.2,4.89-12.8,7.81-16.76 c8.49-11.49,19.93-18.42,32.04-20.9c-1.24-1.84-1.97-4.06-1.97-6.44C43.7,5.16,48.85,0,55.21,0c6.36,0,11.52,5.16,11.52,11.52 c0,2.27-0.66,4.39-1.8,6.18c15.73,2.77,30.59,12.85,39.64,30.02c2.31,5.25,2.58,8.63-0.42,9.76c-0.7,0.26-1.51,0.29-2.45,0.14 c-1.47-0.23-3.33-0.68-5.36-1.68c-23.38-11.44-27.66,4.64-39.49,4.94C43.7,61.21,42.05,42.78,12.44,57.58L12.44,57.58z M0.25,66.7 c-0.45-1.55-0.35-2.53,0.67-2.54c4.46,1.73,7.33,2.39,9.72,2.34l14.95,56.37h-0.03c-4-0.92-7.24-3.14-9.52-7L0.25,66.7L0.25,66.7z M15.62,65.36c2.58-1.04,5.58-2.66,10.61-4.32c1.54-0.51,3.01-0.72,4.44-0.72L39,122.88h-8.08h-0.04L15.62,65.36L15.62,65.36z M36.08,61.14c7.55,1.93,10.26,5.61,15.84,7.96c0.55,0.23,1.1,0.4,1.65,0.52v53.26h-9.27L36.08,61.14L36.08,61.14z M58.86,69.62 l0.18-0.03c6.21-0.98,10.84-5.25,16.82-7.37l-8.07,60.66h-8.92V69.62L58.86,69.62z M81.29,61.06c2.63-0.18,5.57,0.17,8.98,1.34 c2.22,0.77,4.25,1.72,6.31,2.46l-15.39,58.02h-8.12L81.29,61.06L81.29,61.06z M101.57,65.98c1.66,0.1,3.43-0.11,5.4-0.8 c0.98-0.34,2.01-0.86,3.15-1.64c1.43,0.09,2.4,0.59,1.76,2.52l-15.47,48.58c-2.23,4.29-5.34,7.12-9.48,8.24h-0.45L101.57,65.98 L101.57,65.98z"/></g></svg>