<?xml version="1.0" encoding="utf-8"?><svg version="1.1" id="Layer_1" xmlns="http://www.w3.org/2000/svg" xmlns:xlink="http://www.w3.org/1999/xlink" x="0px" y="0px" viewBox="0 0 122.88 122.88" style="enable-background:new 0 0 122.88 122.88" xml:space="preserve"><style type="text/css">.st0{fill-rule:evenodd;clip-rule:evenodd;}</style><g><path class="st0" d="M97.25,0.27l25.36,25.36c0.36,0.36,0.36,0.95,0,1.31l-3.46,3.46L92.48,3.73l3.46-3.46 C96.3-0.09,96.89-0.09,97.25,0.27L97.25,0.27z M80,16.28l25.76,25.76c-38.2-7.83-12.37-0.57-17.05,16.65L63.8,33.78 C83.34,31.25,86.71,50.95,80,16.28L80,16.28z M86.55,62.02L62.74,85.83L36.42,59.51L60.23,35.7L86.55,62.02L86.55,62.02z M59.17,87.75c-20,3.53-24.71-17.54-16.25,18.88L15.74,79.46c38.14,8.14,13.37,1.28,18.53-16.61L59.17,87.75L59.17,87.75z M0.27,97.25l25.36,25.36c0.36,0.36,0.95,0.36,1.31,0l3.46-3.46L3.73,92.48l-3.46,3.46C-0.09,96.3-0.09,96.89,0.27,97.25 L0.27,97.25z M32.85,116.7l7.8-7.8c0.36-0.36,0.36-0.95,0-1.31L15.29,82.23c-0.36-0.36-0.95-0.36-1.31,0l-7.8,7.8L32.85,116.7 L32.85,116.7z M116.7,32.85l-7.8,7.8c-0.36,0.36-0.95,0.36-1.31,0L82.23,15.29c-0.36-0.36-0.36-0.95,0-1.31l7.8-7.8L116.7,32.85 L116.7,32.85z"/></g></svg>