<?xml version="1.0" encoding="utf-8"?><svg version="1.1" id="Layer_1" xmlns="http://www.w3.org/2000/svg" xmlns:xlink="http://www.w3.org/1999/xlink" x="0px" y="0px" viewBox="0 0 93.76 122.88" style="enable-background:new 0 0 93.76 122.88" xml:space="preserve"><g><path d="M45.63,0c8.33,0,15.84,3.38,22.31,9.02c8.08,7.03,14.57,17.65,19.01,29.46c4.38,11.67,6.81,24.56,6.81,36.32 c0,12.97-2.97,24.71-9.52,32.23c-0.86,0.98-1.72,1.89-2.58,2.71c-8.85,8.44-21.32,12.78-33.71,13.11 c-12.41,0.34-24.82-3.34-33.53-10.92c-0.85-0.74-1.66-1.52-2.45-2.34C3.63,100.86,0,87.45,0,72.99C0,61.43,2.32,49.1,6.4,37.97 c4.12-11.25,10.06-21.3,17.26-28.17C30.06,3.68,37.49,0,45.63,0L45.63,0z M62.39,14.33c-5.01-4.36-10.67-6.98-16.76-6.98 c-5.75,0-11.23,2.82-16.14,7.5c-6.38,6.09-11.71,15.17-15.46,25.41c-3.8,10.36-5.96,21.89-5.96,32.72 c0,12.83,3.03,24.53,9.97,31.81c0.6,0.63,1.24,1.24,1.92,1.83c7.11,6.19,17.39,9.19,27.75,8.91c10.38-0.28,20.78-3.87,28.09-10.84 c0.77-0.74,1.47-1.47,2.11-2.19c5.34-6.13,7.76-16.26,7.76-27.7c0-11-2.27-23.06-6.36-33.96C75.27,30.07,69.48,20.51,62.39,14.33 L62.39,14.33z"/></g></svg>